<?xml version="1.0" standalone="no"?>
<!DOCTYPE svg PUBLIC "-//W3C//DTD SVG 20010904//EN"
 "http://www.w3.org/TR/2001/REC-SVG-20010904/DTD/svg10.dtd">
<svg version="1.0" xmlns="http://www.w3.org/2000/svg"
 width="348.000000pt" height="348.000000pt" viewBox="0 0 348.000000 348.000000"
 preserveAspectRatio="xMidYMid meet">
<metadata>
Created by potrace 1.11, written by Peter Selinger 2001-2013
</metadata>
<g transform="translate(0.000000,348.000000) scale(0.100000,-0.100000)"
fill="#000000" stroke="none">
<path d="M980 1740 l0 -1740 760 0 760 0 0 1740 0 1740 -760 0 -760 0 0 -1740z
m1440 1095 l0 -205 -680 -340 c-374 -187 -682 -340 -685 -340 -3 0 -5 29 -5
65 l0 65 630 315 630 315 0 65 c0 36 -2 65 -5 65 -3 0 -284 -139 -625 -310
-341 -170 -622 -310 -625 -310 -3 0 -5 30 -5 68 l0 67 683 342 c375 188 683
342 685 342 1 1 2 -91 2 -204z m0 -413 l0 -67 -342 -171 -343 -171 343 -172
342 -171 0 -70 0 -70 -680 -340 c-374 -187 -682 -340 -685 -340 -3 0 -5 30 -5
68 l0 67 342 171 343 171 -343 172 -342 171 0 70 0 70 678 339 c372 187 680
340 685 340 4 1 7 -29 7 -67z m0 -1097 l0 -65 -630 -315 -630 -315 0 -65 c0
-36 2 -65 5 -65 3 0 284 140 625 310 341 171 622 310 625 310 3 0 5 -30 5 -68
l0 -67 -685 -343 -685 -342 0 205 0 205 678 339 c372 187 680 340 685 340 4 1
7 -28 7 -64z"/>
<path d="M1523 1907 l-63 -32 343 -171 342 -172 70 35 70 36 -335 168 c-184
92 -342 168 -350 168 -8 0 -43 -14 -77 -32z"/>
<path d="M1245 1768 l-60 -31 342 -171 342 -170 71 34 71 34 -333 168 c-183
92 -342 167 -353 167 -11 0 -47 -14 -80 -31z"/>
</g>
</svg>
